<?xml version="1.0" encoding="UTF-8"?>
<!DOCTYPE svg PUBLIC "-//W3C//DTD SVG 1.1//EN" "http://www.w3.org/Graphics/SVG/1.1/DTD/svg11.dtd">
<!-- Creator: CorelDRAW -->
<svg xmlns="http://www.w3.org/2000/svg" xml:space="preserve" width="6.82666in" height="6.82666in" style="shape-rendering:geometricPrecision; text-rendering:geometricPrecision; image-rendering:optimizeQuality; fill-rule:evenodd; clip-rule:evenodd"
viewBox="0 0 6.82666 6.82666"
 xmlns:xlink="http://www.w3.org/1999/xlink">
 <defs>
  <style type="text/css">
   <![CDATA[
    .fil33 {fill:#DC7E7E}
    .fil34 {fill:#DE8787}
    .fil1 {fill:#DE8887}
    .fil7 {fill:#DE8989}
    .fil22 {fill:#DF8C8C}
    .fil0 {fill:#E08E8E}
    .fil16 {fill:#E09090}
    .fil25 {fill:#E19595}
    .fil8 {fill:#E19797}
    .fil17 {fill:#E39B9A}
    .fil15 {fill:#E49E9E}
    .fil9 {fill:#E4A0A0}
    .fil3 {fill:#E5A5A5}
    .fil13 {fill:#E7A9A9}
    .fil6 {fill:#E8ABAB}
    .fil2 {fill:#E8ACAC}
    .fil31 {fill:#E9AEAE}
    .fil35 {fill:#EAB0B0}
    .fil21 {fill:#EAB1B0}
    .fil14 {fill:#EAB4B4}
    .fil11 {fill:#EAB6B6}
    .fil10 {fill:#EBBCBC}
    .fil19 {fill:#EBBDBD}
    .fil12 {fill:#ECBEBE}
    .fil5 {fill:#ECC0BF}
    .fil18 {fill:#EDC1C1}
    .fil30 {fill:#EEC4C4}
    .fil4 {fill:#EFC6C6}
    .fil20 {fill:#F0C7C7}
    .fil23 {fill:#F0C9C8}
    .fil29 {fill:#F0CACA}
    .fil24 {fill:#F0CCCC}
    .fil27 {fill:#F1CFCE}
    .fil26 {fill:#F2D3D3}
    .fil28 {fill:#F3D6D5}
    .fil32 {fill:#F4DADA}
    .fil36 {fill:#B04A4A;fill-rule:nonzero}
   ]]>
  </style>
 </defs>
 <g id="Layer_x0020_1">
  <metadata id="CorelCorpID_0Corel-Layer"/>
  <g id="_422899632">
   <path id="_422903184" class="fil0" d="M3.41333 0.103327c1.82806,0 3.31,1.48194 3.31,3.31 0,1.82806 -1.48195,3.31 -3.31,3.31 -1.82806,0 -3.31,-1.48194 -3.31,-3.31 0,-1.82806 1.48194,-3.31 3.31,-3.31z"/>
   <g>
    <path id="_422903112" class="fil1" d="M0.848185 1.34935l-0.00885827 -0.0168425c0.00755512,-0.00933071 0.0150236,-0.0187362 0.0226732,-0.0279843l-0.013815 0.0448268z"/>
    <path id="_422902776" class="fil2" d="M0.103457 3.42364l0.0734921 0.129063 -0.0561496 0.202406c-0.0111811,-0.109004 -0.017,-0.219591 -0.0173425,-0.331469z"/>
    <path id="_422902848" class="fil3" d="M0.176949 3.5527l-0.0734921 -0.129063c-1.1811e-005,-0.00344488 -0.000129921,-0.0068622 -0.000129921,-0.010311 0,-0.0520866 0.00135827,-0.10385 0.00373622,-0.155346l0.0698858 0.29472z"/>
    <path id="_422903280" class="fil4" d="M1.18756 5.86327l0.776094 -0.143965 -0.0895 0.624878c-0.249299,-0.131197 -0.479941,-0.293059 -0.686594,-0.480913z"/>
    <path id="_422903208" class="fil5" d="M0.877732 5.54075l0.569472 -2.23293 0.516449 2.41148 -0.776094 0.143965c-0.110394,-0.100362 -0.213823,-0.208217 -0.309827,-0.32252z"/>
    <path id="_422902896" class="fil6" d="M1.4472 3.30782l-1.24758 -0.689295c0.0193701,-0.0785748 0.0415394,-0.156035 0.0664055,-0.232291l1.25356 -0.277957 -0.0723819 1.19954z"/>
    <path id="_422903232" class="fil7" d="M0.839327 1.3325l0.00885827 0.0168425 -0.0254252 0.00373228c0.00548819,-0.00688583 0.0110276,-0.0137323 0.0165669,-0.0205748z"/>
    <path id="_422903472" class="fil8" d="M0.82276 1.35308l0.0254252 -0.00373228 -0.185295 0.222043c0.0503425,-0.0750157 0.103724,-0.147807 0.15987,-0.218311z"/>
    <path id="_422903016" class="fil9" d="M0.66289 1.57139l0.185295 -0.222043 0.671402 0.758933 -1.25356 0.277957c0.0950827,-0.291465 0.22935,-0.565213 0.396858,-0.814846z"/>
    <path id="_422902920" class="fil2" d="M0.176949 3.5527l0 0 -0.0698858 -0.29472c0.0101417,-0.219425 0.0417283,-0.43322 0.092563,-0.639457l1.24758 0.689295 -1.27026 0.244882z"/>
    <path id="_422902632" class="fil10" d="M0.206898 4.23793l1.24031 -0.93011 -0.569472 2.23293c-0.313394,-0.373134 -0.546087,-0.816307 -0.670835,-1.30281z"/>
    <path id="_422902536" class="fil11" d="M0.120799 3.75511l0.0561496 -0.202406 1.27026 -0.244882 -1.24031 0.93011c-0.0401969,-0.156756 -0.069189,-0.317996 -0.0860984,-0.482823z"/>
    <polygon id="_422902464" class="fil12" points="2.78985,4.64202 1.4472,3.30782 2.33542,3.05076 "/>
    <polygon id="_422902416" class="fil13" points="2.33542,3.05076 1.51959,2.10828 2.08762,1.129 "/>
    <polygon id="_422902104" class="fil14" points="1.4472,3.30782 1.51959,2.10828 2.33542,3.05076 "/>
    <path id="_422902056" class="fil15" d="M4.66961 2.62237l-0.660965 -1.18732 1.14096 -0.840087c0.0476378,0.0294094 0.0944449,0.0600157 0.140441,0.0917323l-0.620441 1.93567z"/>
    <path id="_422902392" class="fil16" d="M0.848185 1.34935l0.013815 -0.0448268c0.166327,-0.201 0.355965,-0.38198 0.564744,-0.538886l0.660874 0.363366 -1.23943 0.220346z"/>
    <polygon id="_422902128" class="fil17" points="1.51959,2.10828 1.51959,2.10828 0.848185,1.34935 2.08762,1.129 "/>
    <path id="_422902248" class="fil7" d="M2.08762 1.129l-0.660874 -0.363366c0.201024,-0.151071 0.419878,-0.27963 0.65272,-0.382299l0.00815354 0.745665z"/>
    <polygon id="_422902560" class="fil18" points="1.96365,5.7193 1.96365,5.7193 1.4472,3.30782 2.78985,4.64202 "/>
    <polygon id="_422901528" class="fil19" points="4.34946,4.32378 3.48188,3.73625 4.66961,2.62237 "/>
    <path id="_422901216" class="fil20" d="M1.87415 6.34418l0.0895 -0.624878 0.602299 0.89437c-0.242626,-0.0641299 -0.474346,-0.155055 -0.691799,-0.269492z"/>
    <polygon id="_422901504" class="fil21" points="3.48188,3.73625 4.00864,1.43505 4.66961,2.62237 "/>
    <path id="_422901840" class="fil22" d="M2.08762 1.129l0 0 -0.00815354 -0.745665c0.115516,-0.0509252 0.234425,-0.0955551 0.356402,-0.133228l1.08736 0.230075 -1.43561 0.648819z"/>
    <polygon id="_422901768" class="fil5" points="2.78985,4.64202 2.78985,4.64202 2.33542,3.05076 3.48188,3.73625 "/>
    <polygon id="_422901792" class="fil23" points="3.62652,6.6617 1.96365,5.7193 2.78985,4.64202 "/>
    <path id="_422901360" class="fil24" d="M2.56595 6.61367l-0.602299 -0.89437 1.66286 0.942398 -0.117362 0.0601575c-0.0318386,0.000905512 -0.0637638,0.00147638 -0.0958228,0.00147638 -0.292929,0 -0.576898,-0.0382323 -0.847378,-0.109661z"/>
    <polygon id="_422901576" class="fil14" points="3.48188,3.73625 3.48188,3.73625 2.33542,3.05076 4.00864,1.43505 "/>
    <polygon id="_422901336" class="fil3" points="2.33542,3.05076 2.33542,3.05076 2.08762,1.129 4.00864,1.43505 "/>
    <polygon id="_422901720" class="fil25" points="4.00864,1.43505 2.08762,1.129 3.52323,0.480181 "/>
    <path id="_422901384" class="fil26" d="M3.50915 6.72186l0.117362 -0.0601575 0.0260118 0.0529606c-0.0475276,0.00339764 -0.095315,0.00583071 -0.143374,0.00719685z"/>
    <polygon id="_422901168" class="fil27" points="3.62652,6.6617 3.62652,6.6617 2.78985,4.64202 4.25653,6.29448 "/>
    <polygon id="_422900640" class="fil23" points="4.25653,6.29448 4.25653,6.29448 2.78985,4.64202 4.34946,4.32378 "/>
    <path id="_422900712" class="fil28" d="M3.65253 6.71466l-0.0260118 -0.0529606 0.630016 -0.36722 -0.0383425 0.330102c-0.183008,0.0457205 -0.372012,0.076248 -0.565661,0.0900787z"/>
    <polygon id="_422900616" class="fil18" points="2.78985,4.64202 3.48188,3.73625 4.34946,4.32378 "/>
    <path id="_422900976" class="fil16" d="M4.00864 1.43505l0 0 -0.485413 -0.95487 1.35455 -0.0358307c0.0931732,0.0460472 0.183866,0.096311 0.271831,0.150614l-1.14096 0.840087z"/>
    <polygon id="_422900832" class="fil24" points="4.25653,6.29448 4.34946,4.32378 5.32029,4.96029 "/>
    <path id="_422900448" class="fil1" d="M3.52323 0.480181l0 0 -1.08736 -0.230075c0.0435866,-0.0134528 0.0875906,-0.0259291 0.131925,-0.0376142l2.17718 0.16987c0.0447953,0.0197087 0.0890709,0.040378 0.132803,0.0619882l-1.35455 0.0358307z"/>
    <path id="_422900904" class="fil29" d="M5.7747 5.7325l-0.454413 -0.772209 0.671319 -0.734358 0.0964843 1.13719c-0.0954606,0.130713 -0.20022,0.254169 -0.31339,0.369382z"/>
    <polygon id="_422900760" class="fil30" points="5.32029,4.96029 5.32029,4.96029 4.34946,4.32378 5.99161,4.22593 "/>
    <path id="_422900568" class="fil31" d="M5.99161 4.22593l-1.322 -1.60356 1.41277 -1.16667c0.0535709,0.0729134 0.104248,0.148071 0.151819,0.225358l-0.242587 2.54487z"/>
    <path id="_422900400" class="fil17" d="M4.66961 2.62237l0.620441 -1.93567c0.305098,0.210398 0.573087,0.470657 0.792331,0.769008l-1.41277 1.16667z"/>
    <path id="_422900376" class="fil26" d="M4.96148 6.33945l-0.704945 -0.0449685 1.06376 -1.33419 0.454413 0.772209c-0.237335,0.241591 -0.511398,0.446921 -0.813228,0.606949z"/>
    <polygon id="_422899848" class="fil10" points="4.34946,4.32378 4.66961,2.62237 5.99161,4.22593 "/>
    <path id="_422899752" class="fil32" d="M4.21819 6.62458l0.0383425 -0.330102 0.704945 0.0449685c-0.232693,0.123358 -0.481807,0.219803 -0.743287,0.285134z"/>
    <path id="_422899800" class="fil33" d="M3.91769 0.141512l-1.12396 0.0199685c0.200744,-0.0380197 0.407811,-0.0581535 0.61961,-0.0581535 0.171476,0 0.339906,0.0130433 0.504354,0.038185z"/>
    <path id="_422899704" class="fil34" d="M4.74497 0.382362l-2.17718 -0.16987c0.074315,-0.0195787 0.149677,-0.0365512 0.225929,-0.0510118l1.12396 -0.0199685c0.289854,0.0443819 0.567287,0.126453 0.827287,0.24085z"/>
    <path id="_422899896" class="fil6" d="M5.99161 4.22593l0.242587 -2.54487c0.303311,0.492858 0.480945,1.07121 0.48861,1.69056l-0.731197 0.854315z"/>
    <path id="_422899872" class="fil35" d="M5.99161 4.22593l0.731197 -0.854315c0.000173228,0.0139055 0.000527559,0.0277677 0.000527559,0.0417126 0,0.224094 -0.0224016,0.442941 -0.0648465,0.654543l-0.666878 0.158059z"/>
    <path id="_422899728" class="fil20" d="M6.08809 5.36312l-0.0964843 -1.13719 0.488319 0.43489c-0.102228,0.250917 -0.234256,0.4865 -0.391835,0.702295z"/>
    <path id="_422899584" class="fil19" d="M6.47993 4.66082l-0.488319 -0.43489 0.666878 -0.158059c-0.0412087,0.205134 -0.10137,0.403406 -0.178559,0.592949z"/>
   </g>
   <path id="_422899320" class="fil36" d="M3.41333 0c0.942551,0 1.79589,0.382055 2.41358,0.999752 0.617697,0.617693 0.999752,1.47103 0.999752,2.41358 0,0.942551 -0.382055,1.79589 -0.999752,2.41358 -0.617693,0.617697 -1.47103,0.999752 -2.41358,0.999752 -0.942551,0 -1.79589,-0.382055 -2.41358,-0.999752 -0.617697,-0.617693 -0.999752,-1.47103 -0.999752,-2.41358 0,-0.942551 0.382055,-1.79589 0.999752,-2.41358 0.617693,-0.617697 1.47103,-0.999752 2.41358,-0.999752zm2.26731 1.14602c-0.580248,-0.580248 -1.38187,-0.939146 -2.26731,-0.939146 -0.885445,0 -1.68707,0.358898 -2.26731,0.939146 -0.580248,0.580248 -0.939146,1.38187 -0.939146,2.26731 0,0.885445 0.358898,1.68707 0.939146,2.26731 0.580248,0.580248 1.38187,0.939146 2.26731,0.939146 0.885445,0 1.68707,-0.358898 2.26731,-0.939146 0.580248,-0.580248 0.939146,-1.38187 0.939146,-2.26731 0,-0.885445 -0.358898,-1.68707 -0.939146,-2.26731z"/>
  </g>
  <g id="_422898408">
   <g>
    <path id="_422898936" class="fil36" d="M3.12897 2.04852c0.1175,-0.0957677 0.310571,-0.0883583 0.352366,0.0187441 0.0204331,0.0523504 -0.0336535,0.136618 -0.112004,0.183697 -0.124323,0.084126 -0.227594,0.258646 -0.260965,0.392724 -0.0428465,0.172161 -0.0032126,0.313035 -0.0924449,0.485602 -0.0427913,0.0827402 -0.0971457,0.156047 -0.160791,0.207484l0 0.251756 -1.0364 0 0 -0.229843c-0.0762323,-0.0642756 -0.139902,-0.135315 -0.186732,-0.217673 -0.0542953,-0.0954764 -0.0848898,-0.203894 -0.0848898,-0.331374l0 -0.252287 0 -0.200299 0 -0.0140354 0 -0.0158386 0 -0.451894c0,-0.0778898 0.0637244,-0.141614 0.141614,-0.141614l0 0c0.0778898,0 0.141614,0.0637323 0.141614,0.141614l0 0.450457c0.00238583,0.0442244 0.0673858,0.0469094 0.0647165,0.000909449l0 -0.593453c0,-0.0778898 0.0637244,-0.141614 0.141614,-0.141614l0 0c0.0778898,0 0.141614,0.0637244 0.141614,0.141614 0,0.197673 0,0.39535 0,0.593028 0,0.0327874 0.0647126,0.0290472 0.0647126,-0.000602362l0 -0.770673c0,-0.0778898 0.0637244,-0.141614 0.141618,-0.141614l0 0c0.0778898,0 0.141614,0.0637323 0.141614,0.141614 0,0.256917 0,0.513835 0,0.770748 0.00843701,0.041878 0.0647126,0.0214724 0.0647126,-9.44882e-005l0 -0.72915c0,-0.0778898 0.0637244,-0.141614 0.141614,-0.141614l0 0c0.0778898,0 0.141614,0.0637323 0.141614,0.141614l0 0.72872 0.00929921 -1.5748e-005c0.065,-0.110295 0.154508,-0.187764 0.2455,-0.276638z"/>
    <path id="_422899176" class="fil36" d="M2.85152 2.32126c-0.00430315,0.000165354 -0.00618504,0.00026378 -0.00057874,0.000503937 0.000582677,2.3622e-005 0.00105906,3.54331e-005 0.00144882,3.54331e-005l-0.000870079 -0.00053937z"/>
    <path id="_422899152" class="fil36" d="M2.94261 4.22452l-1.21495 0c-0.0444055,0 -0.0804094,-0.0370433 -0.0804094,-0.0827323l0 -0.387803c0,-0.045689 0.0360039,-0.0827323 0.0804094,-0.0827323l1.21495 0c0.0444094,0 0.0804094,0.0370433 0.0804094,0.0827323l0 0.387803c0,0.045689 -0.036,0.0827323 -0.0804094,0.0827323z"/>
    <path id="_422899296" class="fil36" d="M3.14017 5.41333l0 -1.02146c0,-0.0916063 -0.034437,-0.174835 -0.0899134,-0.235114 -0.0554764,-0.0602795 -0.132067,-0.0977008 -0.216374,-0.0977008l-0.997484 0c-0.084311,0 -0.160902,0.0374213 -0.216378,0.0977008 -0.0554764,0.0602795 -0.0899134,0.143508 -0.0899134,0.235114l0 1.02146 1.61006 0z"/>
   </g>
   <g>
    <path id="_422898192" class="fil36" d="M4.99756 2.57874c0.0984882,-0.0802756 0.260323,-0.074063 0.295358,0.0157126 0.017126,0.043878 -0.0282087,0.114512 -0.0938858,0.153976 -0.104205,0.0705157 -0.190772,0.216803 -0.218744,0.329189 -0.0359134,0.144307 -0.00269291,0.262394 -0.0774882,0.407039 -0.0358701,0.0693583 -0.0814291,0.130803 -0.13478,0.173917l0 0.211028 -0.868724 0 0 -0.192657c-0.0639016,-0.053878 -0.117268,-0.113425 -0.156524,-0.182457 -0.0455118,-0.0800315 -0.0711575,-0.170909 -0.0711575,-0.277764l0 -0.211472 0 -0.167894 0 -0.0117677 0 -0.0132756 0 -0.378783c0,-0.0652913 0.0534173,-0.118705 0.118705,-0.118705l0 0c0.0652874,0 0.118705,0.0534213 0.118705,0.118705l0 0.377579c0.002,0.0370669 0.0564803,0.0393228 0.0542441,0.00076378l0 -0.497445c0,-0.0652874 0.0534134,-0.118705 0.118705,-0.118705l0 0c0.0652874,0 0.118705,0.0534173 0.118705,0.118705 0,0.165697 0,0.331394 0,0.497087 0,0.0274843 0.0542441,0.0243504 0.0542441,-0.000503937l0 -0.645992c0,-0.0652913 0.0534134,-0.118705 0.118705,-0.118705l0 0c0.0652874,0 0.118701,0.0534213 0.118701,0.118705 0,0.21535 0,0.430705 0,0.646055 0.0070748,0.0351024 0.054248,0.018 0.054248,-8.26772e-005l0 -0.611185c0,-0.0652874 0.0534134,-0.118705 0.118701,-0.118705l0 0c0.0652913,0 0.118705,0.0534252 0.118705,0.118705l0 0.610827 0.00779528 -1.1811e-005c0.0544803,-0.0924528 0.129508,-0.15739 0.205783,-0.231882z"/>
    <path id="_422898768" class="fil36" d="M4.765 2.80736c-0.0036063,0.000137795 -0.0051811,0.000220472 -0.000484252,0.00042126 0.000492126,1.9685e-005 0.000889764,3.14961e-005 0.00121654,2.75591e-005l-0.000732283 -0.000448819z"/>
    <path id="_422898432" class="fil36" d="M4.84135 4.4027l-1.0184 0c-0.0372244,0 -0.0674016,-0.0310472 -0.0674016,-0.0693465l0 -0.325063c0,-0.0382992 0.0301772,-0.0693504 0.0674016,-0.0693504l1.0184 0c0.0372205,0 0.0673976,0.0310512 0.0673976,0.0693504l0 0.325063c0,0.0382992 -0.0301772,0.0693465 -0.0673976,0.0693465z"/>
    <path id="_422898696" class="fil36" d="M5.00694 5.39919l0 -0.856209c0,-0.0767835 -0.0288701,-0.146547 -0.0753701,-0.197075 -0.0465,-0.0505276 -0.110701,-0.0818976 -0.181366,-0.0818976l-0.83611 0c-0.0706693,0 -0.13487,0.0313701 -0.18137,0.0818976 -0.0465039,0.0505276 -0.0753701,0.120291 -0.0753701,0.197075l0 0.856209 1.34959 0z"/>
   </g>
  </g>
 </g>
</svg>
